<?xml version="1.0" encoding="UTF-8"?>
<svg version="1.1" viewBox="0 0 512 512" xml:space="preserve" xmlns="http://www.w3.org/2000/svg" xmlns:cc="http://creativecommons.org/ns#" xmlns:dc="http://purl.org/dc/elements/1.1/" xmlns:rdf="http://www.w3.org/1999/02/22-rdf-syntax-ns#" xmlns:xlink="http://www.w3.org/1999/xlink"><metadata><rdf:RDF><cc:Work rdf:about=""><dc:format>image/svg+xml</dc:format><dc:type rdf:resource="http://purl.org/dc/dcmitype/StillImage"/><dc:title/></cc:Work></rdf:RDF></metadata><defs><clipPath><path d="m0 888h2992v-888h-2992z"/></clipPath><clipPath id="b"><use width="100%" height="100%" xlink:href="#a"/></clipPath></defs><g transform="matrix(1.25 0 0 -1.25 -413.95 801.55)"><g transform="translate(-10.586 14.367)"/><g transform="matrix(.64145 0 0 .64145 180.72 141.85)" clip-path="url(#b)"><g id="a"><path transform="translate(455.46 335.22)" d="m61.915 91.997s-6.378-5.788-8.602-8.49c-2.223-2.701-9.377-12.159-25.387 10.259 0 0-39.543 52.376-50.951 39.061-11.407-13.317-34.301-21.89-60.174-15.493 0 0-0.193-73.005 112.54-128.21 112.74-55.211 204.51-80.79 157.2-155.81-47.321-75.021-117.15 20.196-72.062 40.88 0 0 35.289 12.714 12.395-30.333 0 0 16.727-12.57 29.233 6.155 12.507 18.722 20.06 46.336-106.59 99.948-126.64 53.614-146.78 105.58-155.41 171.64 0 0-36.2 11.621-21.847 79.494 14.354 67.872 47.209 91.983 52.042 96.711 0 0-32.62 21.37-18.584 58.052 14.036 36.683 27.829 19.094 33.427 16.193 5.598-2.903 36.922 37.722 57.828-14.345 0 0 2.118-9.369-8.515-20.271-10.632-10.902 16.208-15.852 42.78 1.989 26.573 17.839-15.652 46.134 17.437 58.695 31.974 12.139 24.284-3.981 16.247-15.387-10.246-14.539-7.474 0.315-0.176-43.919 0 0 5.591-10.434-21.358-18.811-26.95-8.376-52.358-21.968-25.915-38.795 26.442-16.826 58.067 34.903 64.93 42.043 6.862 7.14 4.524-8.434-10.082-34.686 0 0-16.806-13.09-33.829-41.078-17.02-27.989-33.117 4.955-41.716 0.232-8.598-4.724-62.986-27.85-44.067-37.138 18.918-9.287 11.314 18.82 63.639 4.384 0 0 16.026-6.098 28.956-15.574 0 0 9.092 16.119 15.759 19.203 4.214 1.95-3.03-39.848-7.867-48.759-6.225-11.469-28.651 32.955-59.667 12.223 0 0-12.658-8.293 3.752-16.324 16.409-8.03 21.908-12.96 29.334-23.783 7.425-10.822 21.196-52.261 28.467-20.69 7.271 31.569 17.875-24.222 6.829-29.266" fill="#1ec6ba"/><text transform="scale(1,-1)" x="476.48047" y="-413.5506" fill="#e2e4e2" fill-rule="evenodd" font-family="'Source Sans Pro'" font-size="500px" font-weight="bold" stroke="#e6e6e6" stroke-opacity="0"><tspan x="476.48047" y="-413.5506" fill="#e2e4e2" fill-rule="evenodd" stroke="#e6e6e6" stroke-opacity="0">L</tspan></text>
</g></g>
<flowRoot transform="translate(-10.586 14.367)" fill="#000000" font-family="sans-serif" font-size="40px" letter-spacing="0px" stroke-width="1px" word-spacing="0px" style="line-height:125%" xml:space="preserve"><flowRegion><rect x="827.19" y="774.9" width="2406.1" height="274.72"/></flowRegion><flowPara/></flowRoot><text transform="scale(1,-1)" x="663.23846" y="-214.82324" fill="#e6e6e6" font-family="sans-serif" font-size="32px" letter-spacing="0px" stroke-width="1px" word-spacing="0px" style="line-height:125%" xml:space="preserve"><tspan x="663.23846" y="-214.82324"/></text>
<text transform="scale(1,-1)" x="706.711" y="-161.69012" fill="#000000" font-family="'Source Code Pro'" font-size="100px" letter-spacing="0px" stroke-width="1px" word-spacing="0px" style="line-height:125%" xml:space="preserve"><tspan x="706.711" y="-161.69012"/></text>
<text transform="scale(1,-1)" x="650.28363" y="-154.63585" fill="#e2e4e2" font-family="'Source Sans Pro'" font-size="290px" font-weight="900" letter-spacing="0px" stroke-width="1px" word-spacing="0px" style="line-height:139.99999762%" xml:space="preserve"><tspan x="650.28363" y="-154.63585" fill="#e2e4e2" font-family="'Source Sans Pro'" font-size="290px" font-weight="900" style="line-height:139.99999762%"/></text>
</g></svg>
