<?xml version="1.0" encoding="UTF-8" standalone="no"?>
<svg
   xmlns:dc="http://purl.org/dc/elements/1.1/"
   xmlns:cc="http://creativecommons.org/ns#"
   xmlns:rdf="http://www.w3.org/1999/02/22-rdf-syntax-ns#"
   xmlns:svg="http://www.w3.org/2000/svg"
   xmlns="http://www.w3.org/2000/svg"
   xmlns:sodipodi="http://sodipodi.sourceforge.net/DTD/sodipodi-0.dtd"
   xmlns:inkscape="http://www.inkscape.org/namespaces/inkscape"
   width="200mm"
   height="200mm"
   version="1.1"
   viewBox="0 0 200 200"
   id="svg26"
   sodipodi:docname="dark-theme.svg"
   inkscape:version="1.0.1 (3bc2e813f5, 2020-09-07)">
  <metadata
     id="metadata32">
    <rdf:RDF>
      <cc:Work
         rdf:about="">
        <dc:format>image/svg+xml</dc:format>
        <dc:type
           rdf:resource="http://purl.org/dc/dcmitype/StillImage" />
      </cc:Work>
    </rdf:RDF>
  </metadata>
  <defs
     id="defs30" />
  <sodipodi:namedview
     pagecolor="#ffffff"
     bordercolor="#666666"
     borderopacity="1"
     objecttolerance="10"
     gridtolerance="10"
     guidetolerance="10"
     inkscape:pageopacity="0"
     inkscape:pageshadow="2"
     inkscape:window-width="1920"
     inkscape:window-height="1080"
     id="namedview28"
     showgrid="false"
     inkscape:zoom="0.82599647"
     inkscape:cx="288.22677"
     inkscape:cy="330.44483"
     inkscape:window-x="0"
     inkscape:window-y="0"
     inkscape:window-maximized="0"
     inkscape:current-layer="g24" />
  <g
     transform="rotate(17.036 424.64 148.28)"
     id="g24">
    <path
       transform="matrix(.26458 0 0 .26458 0 97)"
       d="m377.95 0a377.95 377.95 0 0 0-126.25 22.127 377.95 377.95 0 0 1 214.2 340.11 377.95 377.95 0 0 1-251.71 355.83 377.95 377.95 0 0 0 163.76 37.842 377.95 377.95 0 0 0 377.95-377.95 377.95 377.95 0 0 0-377.95-377.95z"
       fill="#e6e6e6"
       id="path2"
       style="stroke:none;stroke-opacity:1;stroke-width:30.00037773;stroke-miterlimit:4;stroke-dasharray:none;paint-order:markers stroke fill;fill:#414141;fill-opacity:1" />
    <circle
       cx="144.51"
       cy="198.7"
       r="14.305"
       fill="#ccc"
       stroke-width=".15562"
       id="circle4"
       style="fill:#787878;fill-opacity:1" />
    <path
       d="m181.27 138.95a18.174 18.174 0 0 0-8.8827 15.596 18.174 18.174 0 0 0 18.174 18.175 18.174 18.174 0 0 0 6.1056-1.0759 100 100 0 0 0-15.397-32.695z"
       fill="#b3b3b3"
       stroke-width=".26458"
       id="path6"
       style="fill:#6f6f6f;fill-opacity:1" />
    <g
       fill="#ccc"
       id="g14"
       style="fill:#787878;fill-opacity:1">
      <circle
         cx="165.3"
         cy="224.41"
         r="5.9897"
         stroke-width=".065159"
         id="circle8"
         style="fill:#787878;fill-opacity:1" />
      <circle
         cx="153.39"
         cy="157.69"
         r="4.2888"
         stroke-width=".046656"
         id="circle10"
         style="fill:#787878;fill-opacity:1" />
      <circle
         cx="120.89"
         cy="125.19"
         r="11.092"
         stroke-width=".12067"
         id="circle12"
         style="fill:#787878;fill-opacity:1" />
    </g>
    <path
       transform="matrix(.26458 0 0 .26458 0 97)"
       d="m389.04 13.186a56.924 56.924 0 0 0-56.924 56.924 56.924 56.924 0 0 0 0.13477 3.8105 377.95 377.95 0 0 1 51.291 52.84 56.924 56.924 0 0 0 5.498 0.27343 56.924 56.924 0 0 0 56.924-56.924 56.924 56.924 0 0 0-56.924-56.924z"
       fill="#b3b3b3"
       stroke-width=".61925"
       id="path16"
       style="fill:#6f6f6f;fill-opacity:1" />
    <circle
       cx="122.02"
       cy="149.38"
       r="4.2888"
       fill="#ccc"
       stroke-width=".046656"
       id="circle18"
       style="fill:#787878;fill-opacity:1" />
    <path
       transform="matrix(.26458 0 0 .26458 0 97)"
       d="m369.88 613.4a377.95 377.95 0 0 1-66.086 58.561 45.354 45.354 0 0 0 39.811 23.721 45.354 45.354 0 0 0 45.354-45.354 45.354 45.354 0 0 0-19.078-36.928z"
       fill="#ccc"
       stroke-width=".66027"
       id="path20"
       style="fill:#787878;fill-opacity:1" />
    <path
       transform="matrix(.26458 0 0 .26458 0 97)"
       d="m520.03 580.69a176.07 186.07 0 0 0-175.47 173.55 377.95 377.95 0 0 0 33.398 1.6719 377.95 377.95 0 0 0 271.25-115.34 176.07 186.07 0 0 0-129.17-59.885z"
       fill="#b3b3b3"
       stroke-width="2.635"
       id="path22"
       style="fill:#6f6f6f;fill-opacity:1" />
  </g>
</svg>
