<?xml version="1.0" encoding="UTF-8"?>
<!-- Created with Inkscape (http://www.inkscape.org/) -->
<svg width="250" height="250.27" version="1.1" viewBox="0 0 250 250.27" xmlns="http://www.w3.org/2000/svg" xmlns:cc="http://creativecommons.org/ns#" xmlns:dc="http://purl.org/dc/elements/1.1/" xmlns:rdf="http://www.w3.org/1999/02/22-rdf-syntax-ns#">
 <metadata>
  <rdf:RDF>
   <cc:Work rdf:about="">
    <dc:format>image/svg+xml</dc:format>
    <dc:type rdf:resource="http://purl.org/dc/dcmitype/StillImage"/>
    <dc:title/>
   </cc:Work>
  </rdf:RDF>
 </metadata>
 <g transform="translate(-201.12 13.001)">
  <circle cx="326.12" cy="112.27" r="125" fill="#f9f9f9"/>
  <path d="m309.62 236.22c-3.3-0.51673-6.5582-1.1522-7.2404-1.4121l-1.2404-0.47262-0.25962-48.285-0.25963-48.285-96.911-1-0.97095-4c-1.2596-5.1889-1.2596-35.811 0-41l0.97095-4 96.911-1 1-96.919 3.5-0.7854c1.925-0.43197 8.675-1.0729 15-1.4244l11.5-0.639 8.9852 1.2022c4.9419 0.66122 9.2169 1.4336 9.5 1.7163 0.28313 0.28274 0.73979 22.189 1.0148 48.681l0.5 48.167 96.911 1 0.97095 4c0.53402 2.2 0.97095 11.425 0.97095 20.5s-0.43693 18.3-0.97095 20.5l-0.97095 4-96.911 1-1 96.919-3.5 0.81174c-5.4934 1.274-30.861 1.7642-37.5 0.72462zm-39.168-12.379c-5.9574-2.9832-14.499-8.1554-18.982-11.494-8.6032-6.407-25.35-23.39-25.35-25.708v-1.3672l27.993-14.003c15.396-7.7019 28.446-14.003 29-14.003h1.0069v72h-1.4184c-0.78014 0-6.2926-2.4408-12.25-5.4241zm97.668-30.576c0-19.8 0.22294-36 0.49542-36 1.7618 0 57.505 28.705 57.505 29.613 0 2.1223-17.187 19.391-25.35 25.47-7.8347 5.8347-28.295 16.918-31.232 16.918h-1.4184zm-149.4-17.25c-2.0558-3.1888-3.9951-7.6892-3.508-8.1407 0.22685-0.21023 6.3685-3.3583 13.648-6.9958l13.236-6.6135h25.147l-0.64057 1.0365c-0.7108 1.1501-43.88 22.964-45.446 22.964-0.5421 0-1.6384-1.0125-2.4362-2.25zm205.65-14.538c-6.1875-3.1193-11.25-6.0182-11.25-6.4419s5.6546-0.77046 12.566-0.77046h12.566l1.9343 1.0352c1.0638 0.56935 1.9343 1.7123 1.9343 2.5398 0 2.4389-3.9336 9.43-5.2703 9.3669-0.67633-0.0319-6.2922-2.6102-12.48-5.7295zm-212.5-92.292c-0.9625-0.5606-1.75-1.6898-1.75-2.5094 0-2.1776 3.8714-9.4105 5.037-9.4105 1.5519 0 22.729 10.812 23.444 11.969l0.63706 1.0308-25.618-0.06082zm173.77 0.04364c1.1169-1.8071 44.647-23.112 46.091-22.558 1.4416 0.55319 6.0902 9.2471 5.3253 9.9594-0.24124 0.22462-6.3947 3.3845-13.674 7.0219l-13.236 6.6135h-25.147l0.64056-1.0365zm-131.77-16.021-27.75-13.95v-1.3671c0-2.3177 16.747-19.301 25.35-25.708 7.8347-5.8347 28.295-16.918 31.232-16.918h1.4184v72l-1.25-0.05397c-0.6875-0.02968-13.738-6.3313-29-14.004zm114.25-21.942v-36h1.4184c2.9367 0 23.397 11.083 31.232 16.918 8.1604 6.0773 25.35 23.347 25.35 25.469 0 0.91889-55.684 29.614-57.468 29.614-0.29286 0-0.53248-16.2-0.53248-36z" fill="#ce172e"/>
  <path d="m270.45 223.84c-5.9574-2.9832-14.499-8.1554-18.982-11.494-8.6032-6.407-25.35-23.39-25.35-25.708v-1.3672l27.993-14.003c15.396-7.7019 28.446-14.003 29-14.003h1.0069v72h-1.4184c-0.78014 0-6.2926-2.4408-12.25-5.4241zm97.668-30.576c0-19.8 0.22294-36 0.49542-36 1.7618 0 57.505 28.705 57.505 29.613 0 2.1223-17.187 19.391-25.35 25.47-7.8347 5.8347-28.295 16.918-31.232 16.918h-1.4184zm-114.25-140.06-27.75-13.95v-1.3671c0-2.3177 16.747-19.301 25.35-25.708 7.8347-5.8347 28.295-16.918 31.232-16.918h1.4184v72l-1.25-0.05397c-0.6875-0.02968-13.738-6.3313-29-14.004zm114.25-21.942v-36h1.4184c2.9367 0 23.397 11.083 31.232 16.918 8.1604 6.0773 25.35 23.347 25.35 25.469 0 0.91889-55.684 29.614-57.468 29.614-0.29286 0-0.53248-16.2-0.53248-36z" fill="#00227b"/>
 </g>
</svg>
