<svg width="253.58" height="253.58" version="1.1" viewBox="0 0 253.58 253.58" xmlns="http://www.w3.org/2000/svg">
<g transform="translate(-199.33 14.521)">
<circle cx="326.12" cy="112.27" r="124.9" fill="#f9f9f9" stroke="#000" stroke-opacity=".47739" stroke-width="3.7795" style="paint-order:stroke markers fill"/>
<path d="m309.62 236.22c-3.3-0.51673-6.5582-1.1522-7.2404-1.4121l-1.2404-0.47262-0.25962-48.285-0.25963-48.285-96.911-1-0.97095-4c-2.3844-7.251-2.3844-32.343 0-41l0.78348-4 97.098-1 1-97.247c7.9108-1.6667 15.834-3.2589 24.077-2.8191 8.2432 0.43984 16.868-0.09272 24.783 3.0294 0 0 0.36486 22.376 0.63987 48.868l0.5 48.167 96.911 1 0.97095 4c0.53402 2.2 1.5012 11.425 1.5012 20.5s-0.96716 18.3-1.5012 20.5l-0.97095 4-96.911 1-1 96.919-3.5 0.81174c-5.4934 1.274-30.861 1.7642-37.5 0.72462zm-92.806-62.989c-0.61422-1.0347-2.4103-5.0592-2.4103-5.0592 0.22685-0.21023 7.1764-3.6561 14.456-7.2936l13.236-6.6135h25.147l-0.64057 1.0365c-0.7108 1.1501-46.341 23.527-46.341 23.527-0.49292-0.96192-2.8805-4.6786-3.4472-5.5976zm207.56-11.754c-6.1875-3.1193-11.25-6.0182-11.25-6.4419s5.6546-0.77046 12.566-0.77046h12.566l1.9343 1.0352c1.0638 0.56935 2.6965 1.4462 2.6965 1.4462l-2.254 5.5616-2.5854 5.3628c-0.64319-0.33015-7.4852-3.0742-13.673-6.1934zm-215.34-92.946c0-2.1776 5.2358-11.995 5.2358-11.995s23.624 11.541 24.339 12.698l0.63706 1.0308-25.618-0.06082c-1.6096-0.7846-4.5937-1.6727-4.5937-1.6727zm176.61 0.69722c1.1169-1.8071 45.177-23.642 46.621-23.088l2.9495 4.8722 2.5746 5.1534c-0.24124 0.22462-7.1238 3.8485-14.403 7.4859l-13.236 6.6135h-25.147l0.64056-1.0365zm-131.77-16.021c-36.36 123.9-18.18 61.951 0 0z" fill="#ce172e"/>
<path d="m270.28 224.17c-5.9574-2.9832-14.896-7.8775-19.379-11.216-8.6032-6.407-23.299-23.26-24.647-25.146l-1.5466-2.1639 29.399-14.378c15.396-7.7019 28.446-14.003 29-14.003h1.0069c0.18546 24.239 0.72084 48.596-0.0265 72.862-4.7831-1.7691-10.069-4.0899-13.807-5.955zm97.834-30.907c0.0252-19.8 0.22294-36 0.49542-36 1.0707 0 21.986 10.73 38.286 19.275 10.521 5.5149 19.12 10.119 19.219 10.338 0.54614 1.212-16.343 19.813-24.788 25.47-10.155 7.5344-21.923 13.56-33.26 17.668zm-114.25-140.06-28.992-14.419c7.3558-9.7581 15.954-19 25.795-26.372 10.13-7.588 27.705-17.186 33.513-17.848l-0.0663 72.696-1.25-0.05397c-0.6875-0.02968-13.738-6.3313-29-14.004zm114.25-21.942v-37.06c11.501 2.7609 28.098 14.35 36.727 20.696 8.6285 6.346 21.738 22.553 21.738 22.553s-12.438 6.6039-25.791 13.596c-0.83794 0.43872-1.6795 0.87897-2.5218 1.3192-14.255 7.4504-28.727 14.898-29.619 14.898-0.29286 0-0.53248-16.2-0.53248-36z" fill="#00227b"/>
</g>
</svg>
