<?xml version="1.0" encoding="UTF-8" standalone="no"?>
<svg
   xmlns:dc="http://purl.org/dc/elements/1.1/"
   xmlns:cc="http://creativecommons.org/ns#"
   xmlns:rdf="http://www.w3.org/1999/02/22-rdf-syntax-ns#"
   xmlns:svg="http://www.w3.org/2000/svg"
   xmlns="http://www.w3.org/2000/svg"
   xmlns:sodipodi="http://sodipodi.sourceforge.net/DTD/sodipodi-0.dtd"
   xmlns:inkscape="http://www.inkscape.org/namespaces/inkscape"
   version="1.1"
   id="svg66"
   xml:space="preserve"
   width="308.05692"
   height="157.91811"
   viewBox="0 0 308.05691 157.91811"
   sodipodi:docname="ericsson.svg"
   inkscape:version="1.0.1 (3bc2e813f5, 2020-09-07)"><sodipodi:namedview
     pagecolor="#ffffff"
     bordercolor="#666666"
     borderopacity="1"
     objecttolerance="10"
     gridtolerance="10"
     guidetolerance="10"
     inkscape:pageopacity="0"
     inkscape:pageshadow="2"
     inkscape:window-width="956"
     inkscape:window-height="1051"
     id="namedview31"
     showgrid="false"
     inkscape:zoom="2.0028927"
     inkscape:cx="137.55493"
     inkscape:cy="104.77671"
     inkscape:window-x="1920"
     inkscape:window-y="25"
     inkscape:window-maximized="0"
     inkscape:current-layer="svg66"
     fit-margin-left="64"
     fit-margin-top="0"
     fit-margin-right="64"
     fit-margin-bottom="0"
     inkscape:document-rotation="0" /><metadata
     id="metadata72"><rdf:RDF><cc:Work
         rdf:about=""><dc:format>image/svg+xml</dc:format><dc:type
           rdf:resource="http://purl.org/dc/dcmitype/StillImage" /><dc:title></dc:title></cc:Work></rdf:RDF></metadata><defs
     id="defs70"><clipPath
       clipPathUnits="userSpaceOnUse"
       id="clipPath82"><path
         d="M 0,283.465 H 283.465 V 0 H 0 Z"
         id="path80" /></clipPath></defs><g
     id="g74"
     transform="matrix(1.3333333,0,0,-1.3333333,-37.187464,267.10504)"
     style="fill:#ffffff"><g
       id="g76"
       style="fill:#ffffff"><g
         id="g78"
         clip-path="url(#clipPath82)"
         style="fill:#ffffff"><g
           id="g84"
           transform="translate(124.2051,168.8525)"
           style="fill:#ffffff"><path
             d="m 0,0 c -4.115,-1.508 -8.674,0.604 -10.183,4.72 -1.508,4.115 0.605,8.673 4.719,10.182 l 43.878,16.087 c 4.114,1.509 8.673,-0.604 10.182,-4.719 1.508,-4.115 -0.604,-8.674 -4.719,-10.183 z"
             style="fill:#ffffff;fill-opacity:1;fill-rule:nonzero;stroke:none"
             id="path86" /></g><g
           id="g88"
           transform="translate(124.2051,145.1025)"
           style="fill:#ffffff"><path
             d="m 0,0 c -4.115,-1.508 -8.674,0.605 -10.183,4.721 -1.508,4.115 0.605,8.673 4.719,10.181 l 43.878,16.087 c 4.114,1.509 8.673,-0.604 10.182,-4.719 1.508,-4.114 -0.604,-8.673 -4.719,-10.182 z"
             style="fill:#ffffff;fill-opacity:1;fill-rule:nonzero;stroke:none"
             id="path90" /></g><g
           id="g92"
           transform="translate(124.2051,121.3525)"
           style="fill:#ffffff"><path
             d="m 0,0 c -4.115,-1.508 -8.674,0.605 -10.183,4.721 -1.508,4.115 0.605,8.674 4.719,10.181 L 38.414,30.99 c 4.114,1.508 8.673,-0.604 10.182,-4.719 1.508,-4.115 -0.604,-8.673 -4.719,-10.183 z"
             style="fill:#ffffff;fill-opacity:1;fill-rule:nonzero;stroke:none"
             id="path94" /></g><g
           id="g96"
           transform="translate(75.8906,101.6191)"
           style="fill:#ffffff"><path
             d="M 0,0 H 14.719 V -4 H 5.197 v -3.478 h 9.131 v -4.15 H 5.197 v -3.591 h 9.676 v -4.029 H 0 Z"
             style="fill:#ffffff;fill-opacity:1;fill-rule:nonzero;stroke:none"
             id="path98" /></g><path
           d="m 113.481,101.619 h 5.237 v -19.26 h -5.237 z"
           style="fill:#ffffff;fill-opacity:1;fill-rule:nonzero;stroke:none"
           id="path100" /><g
           id="g102"
           transform="translate(137.8223,101.001)"
           style="fill:#ffffff"><path
             d="m 0,0 -0.352,-4.122 c -4.23,2.448 -10.714,1.668 -10.829,-4.753 -0.119,-6.415 6.677,-7.353 10.987,-5.173 l 0.27,-4.207 c -7.608,-2.37 -16.697,0.041 -16.657,9.38 C -16.543,0.273 -7.379,2.804 0,0"
             style="fill:#ffffff;fill-opacity:1;fill-rule:nonzero;stroke:none"
             id="path104" /></g><g
           id="g106"
           transform="translate(153.2383,101.2988)"
           style="fill:#ffffff"><path
             d="m 0,0 -0.353,-4.011 c -2.638,1.454 -7.649,1.492 -7.649,-0.79 0,-3.38 8.932,-0.94 8.932,-8.177 0,-7.119 -8.502,-7.198 -14.018,-5.546 l 0.391,4.245 c 3.455,-1.611 8.348,-1.963 8.348,0.829 0,3.066 -8.97,1.339 -8.97,8.22 0,5.643 6.989,7.156 13.319,5.23"
             style="fill:#ffffff;fill-opacity:1;fill-rule:nonzero;stroke:none"
             id="path108" /></g><g
           id="g110"
           transform="translate(169.0381,101.2988)"
           style="fill:#ffffff"><path
             d="m 0,0 -0.348,-4.011 c -2.641,1.454 -7.649,1.492 -7.649,-0.79 0,-3.38 8.932,-0.94 8.932,-8.177 0,-7.119 -8.506,-7.198 -14.022,-5.546 l 0.393,4.245 c 3.454,-1.611 8.345,-1.963 8.345,0.829 0,3.066 -8.967,1.339 -8.967,8.22 0,5.643 6.988,7.156 13.316,5.23"
             style="fill:#ffffff;fill-opacity:1;fill-rule:nonzero;stroke:none"
             id="path112" /></g><g
           id="g114"
           transform="translate(193.1523,101.6191)"
           style="fill:#ffffff"><path
             d="m 0,0 h 6.635 l 6.332,-12.423 V 0 h 4.814 v -19.26 h -6.25 L 4.854,-6.603 V -19.26 H 0 Z"
             style="fill:#ffffff;fill-opacity:1;fill-rule:nonzero;stroke:none"
             id="path116" /></g><g
           id="g118"
           transform="translate(176.8828,91.9482)"
           style="fill:#ffffff"><path
             d="M 0,0 C 0,-2.936 1.259,-6.258 4.194,-6.253 7.13,-6.249 8.365,-2.936 8.387,0 8.408,2.654 7.13,6.246 4.194,6.251 1.259,6.252 0,2.934 0,0 M 4.194,10.135 C 9.635,10.131 13.784,6.947 13.784,0 c 0,-6.641 -4.171,-10.058 -9.59,-10.058 -5.41,-0.002 -9.555,3.338 -9.555,10.058 0,6.947 4.124,10.135 9.555,10.135"
             style="fill:#ffffff;fill-opacity:1;fill-rule:nonzero;stroke:none"
             id="path120" /></g><g
           id="g122"
           transform="translate(94.4121,101.6191)"
           style="fill:#ffffff"><path
             d="m 0,0 h 9.437 c 2.563,0 6.132,-1.125 6.132,-5.127 0,-2.559 -1.161,-3.994 -3.368,-4.658 0.104,0.008 1.26,-0.496 1.738,-1.944 0.019,-0.047 2.7,-7.513 2.731,-7.531 h -5.565 l -1.98,5.787 c -0.304,0.889 -0.965,1.477 -1.903,1.477 -0.816,0 -2.097,0.053 -2.097,0 V -19.26 H 0 Z m 5.01,-8.115 h 2.873 c 1.293,-0.022 2.459,0.756 2.446,2.176 -0.008,1.257 -1.04,2.152 -2.37,2.132 H 5.01 Z"
             style="fill:#ffffff;fill-opacity:1;fill-rule:nonzero;stroke:none"
             id="path124" /></g></g></g></g></svg>
