<?xml version="1.0" encoding="UTF-8" standalone="no"?>
<!-- Created with Inkscape (http://www.inkscape.org/) -->

<svg
   xmlns:dc="http://purl.org/dc/elements/1.1/"
   xmlns:cc="http://creativecommons.org/ns#"
   xmlns:rdf="http://www.w3.org/1999/02/22-rdf-syntax-ns#"
   xmlns:svg="http://www.w3.org/2000/svg"
   xmlns="http://www.w3.org/2000/svg"
   xmlns:sodipodi="http://sodipodi.sourceforge.net/DTD/sodipodi-0.dtd"
   xmlns:inkscape="http://www.inkscape.org/namespaces/inkscape"
   width="124.35496mm"
   height="124.35496mm"
   viewBox="0 0 124.35496 124.35496"
   version="1.1"
   id="svg529"
   inkscape:version="0.92.4 (5da689c313, 2019-01-14)"
   sodipodi:docname="light-theme.svg"
   inkscape:export-filename="E:\Desktop\light-theme.png"
   inkscape:export-xdpi="96"
   inkscape:export-ydpi="96">
  <defs
     id="defs523" />
  <sodipodi:namedview
     id="base"
     pagecolor="#ffffff"
     bordercolor="#666666"
     borderopacity="1.0"
     inkscape:pageopacity="0.0"
     inkscape:pageshadow="2"
     inkscape:zoom="0.7"
     inkscape:cx="136.29429"
     inkscape:cy="219.03167"
     inkscape:document-units="mm"
     inkscape:current-layer="layer1"
     showgrid="false"
     inkscape:window-width="1920"
     inkscape:window-height="1027"
     inkscape:window-x="-8"
     inkscape:window-y="-8"
     inkscape:window-maximized="1" />
  <metadata
     id="metadata526">
    <rdf:RDF>
      <cc:Work
         rdf:about="">
        <dc:format>image/svg+xml</dc:format>
        <dc:type
           rdf:resource="http://purl.org/dc/dcmitype/StillImage" />
        <dc:title></dc:title>
      </cc:Work>
    </rdf:RDF>
  </metadata>
  <g
     inkscape:label="Layer 1"
     inkscape:groupmode="layer"
     id="layer1"
     transform="translate(-99.889325,-5.0908934)">
    <path
       sodipodi:type="star"
       style="fill:#ffdd55;stroke-width:0.26458332"
       id="path533"
       sodipodi:sides="24"
       sodipodi:cx="162.0668"
       sodipodi:cy="67.268372"
       sodipodi:r1="50.986149"
       sodipodi:r2="62.17823"
       sodipodi:arg1="0.64958006"
       sodipodi:arg2="0.78047975"
       inkscape:flatsided="false"
       inkscape:rounded="0"
       inkscape:randomized="0"
       d="m 202.669,98.107448 3.58016,12.910792 -12.94538,-3.45299 0.11661,13.39749 -11.61059,-6.68584 -3.35488,12.97115 -9.48455,-9.46307 -6.59775,11.66087 -6.71214,-11.5954 -9.391,9.5559 -3.48231,-12.93752 -11.54426,6.79973 -0.0152,-13.39799 -12.9108,3.58016 3.45299,-12.945384 -13.39748,0.11661 6.68584,-11.610585 -12.97116,-3.354887 9.46307,-9.484541 -11.660865,-6.597754 11.595405,-6.71214 -9.55591,-9.390996 12.93753,-3.482319 -6.79973,-11.544256 13.39798,-0.01518 -3.58016,-12.910795 12.94539,3.452988 -0.11661,-13.397484 11.61058,6.685843 3.35489,-12.9711562 9.48454,9.4630692 6.59776,-11.6608666 6.71214,11.5954026 9.39099,-9.5559077 3.48232,12.9375287 11.54426,-6.79973 0.0152,13.397983 12.91079,-3.58016 -3.45298,12.945387 13.39748,-0.11661 -6.68584,11.610585 12.97115,3.354887 -9.46307,9.484541 11.66087,6.597755 -11.5954,6.71214 9.55591,9.390996 -12.93753,3.482318 6.79973,11.544256 z"
       inkscape:transform-center-x="5.5476533"
       inkscape:transform-center-y="-0.40849143" />
    <circle
       style="fill:#ffeeaa;stroke-width:0.26458332"
       id="path535"
       cx="161.97191"
       cy="67.017715"
       r="50" />
  </g>
</svg>
