<?xml version="1.0" encoding="UTF-8" standalone="no"?>
<!-- Created with Inkscape (http://www.inkscape.org/) -->

<svg
   xmlns:dc="http://purl.org/dc/elements/1.1/"
   xmlns:cc="http://creativecommons.org/ns#"
   xmlns:rdf="http://www.w3.org/1999/02/22-rdf-syntax-ns#"
   xmlns:svg="http://www.w3.org/2000/svg"
   xmlns="http://www.w3.org/2000/svg"
   xmlns:sodipodi="http://sodipodi.sourceforge.net/DTD/sodipodi-0.dtd"
   xmlns:inkscape="http://www.inkscape.org/namespaces/inkscape"
   width="248.77"
   height="249.22"
   version="1.1"
   viewBox="0 0 248.77 249.22"
   id="svg78"
   sodipodi:docname="se.svg"
   inkscape:version="0.92.4 (5da689c313, 2019-01-14)">
  <defs
     id="defs82" />
  <sodipodi:namedview
     pagecolor="#ffffff"
     bordercolor="#666666"
     borderopacity="1"
     objecttolerance="10"
     gridtolerance="10"
     guidetolerance="10"
     inkscape:pageopacity="0"
     inkscape:pageshadow="2"
     inkscape:window-width="1920"
     inkscape:window-height="1027"
     id="namedview80"
     showgrid="false"
     inkscape:zoom="2.4343857"
     inkscape:cx="61.054554"
     inkscape:cy="135.77337"
     inkscape:window-x="-8"
     inkscape:window-y="-8"
     inkscape:window-maximized="1"
     inkscape:current-layer="g76" />
  <metadata
     id="metadata70">
    <rdf:RDF>
      <cc:Work
         rdf:about="">
        <dc:format>image/svg+xml</dc:format>
        <dc:type
           rdf:resource="http://purl.org/dc/dcmitype/StillImage" />
        <dc:title></dc:title>
      </cc:Work>
    </rdf:RDF>
  </metadata>
  <g
     transform="translate(-234.19 115.59)"
     id="g76">
    <path
       id="path933"
       d="m342.32 132.98c-28.616-4.5162-50.495-15.188-70.562-34.417-17.307-16.584-28.833-36.849-34.866-61.297-2.3364-9.4689-2.6603-12.809-2.6923-27.764-0.0322-14.997 0.27728-18.329 2.6257-28.281 11.284-47.817 47.793-83.802 95.758-94.384 13.719-3.0265 37.026-3.2604 50-0.5018 49.391 10.502 86.298 46.324 97.758 94.885 2.3484 9.9515 2.6579 13.284 2.6257 28.281-0.0321 14.955-0.35598 18.295-2.6923 27.764-11.98 48.552-48.588 84.058-97.191 94.264-9.2836 1.9494-32.392 2.7718-40.764 1.4506z"
       fill="#f8c803" />
    <path
       d="M 48.890625 25.179688 C 26.069448 42.480261 9.5749828 67.400731 2.6347656 96.810547 C 2.4407364 97.632793 2.2823841 98.353524 2.1152344 99.095703 L 48.890625 99.095703 L 48.890625 25.179688 z "
       transform="translate(234.19,-115.59)"
       id="path939"
       style="fill:#015191;fill-opacity:1" />
    <path
       d="M 2.0449219 150.09961 C 2.247065 150.9754 2.4570484 151.86609 2.7011719 152.85547 C 8.7341719 177.30347 20.261359 197.56834 37.568359 214.15234 C 41.269766 217.69918 45.035013 220.95006 48.890625 223.92969 L 48.890625 150.09961 L 2.0449219 150.09961 z "
       transform="translate(234.19,-115.59)"
       id="path72"
       style="fill:#015191;fill-opacity:1" />
    <path
       d="M 99.890625 150.09766 L 99.890625 247.03711 C 102.5803 247.60293 105.3135 248.12595 108.12891 248.57031 L 108.13086 248.57031 C 116.50432 249.89112 139.61157 249.06841 148.89453 247.11914 C 197.49753 236.91314 234.10398 201.40747 246.08398 152.85547 C 246.32813 151.86597 246.53808 150.97354 246.74023 150.09766 L 99.890625 150.09766 z "
       transform="translate(234.19,-115.59)"
       id="path935"
       style="fill:#015191;fill-opacity:1" />
    <path
       d="M 123.67188 0.005859375 C 114.91343 0.093758071 106.09406 0.85092369 99.339844 2.2382812 L 99.339844 99.630859 L 246.79492 99.630859 C 246.59604 98.734282 246.39184 97.825409 246.15234 96.810547 C 234.69234 48.249547 197.78358 12.427781 148.39258 1.9257812 C 141.90558 0.54648125 132.83525 -0.086103125 123.67188 0.005859375 z "
       transform="translate(234.19,-115.59)"
       id="path937"
       style="fill:#015191;fill-opacity:1" />
  </g>
</svg>
