<svg width="252.22" height="252.9" version="1.1" viewBox="0 0 252.22 252.9" xmlns="http://www.w3.org/2000/svg">
<g transform="translate(-232.47 117.34)">
<path d="m342.33 132.88c-28.593-4.5126-50.455-15.176-70.506-34.39-17.293-16.571-28.81-36.82-34.838-61.249-2.3346-9.4614-2.6582-12.799-2.6902-27.742-0.0322-14.985 0.27706-18.315 2.6236-28.259 11.275-47.779 47.755-83.736 95.682-94.309 13.708-3.0241 36.997-3.2578 49.96-0.5014 49.352 10.494 86.23 46.287 97.681 94.81 2.3466 9.9436 2.6558 13.274 2.6236 28.259-0.0321 14.943-0.3557 18.281-2.6902 27.742-11.971 48.514-48.55 83.992-97.114 94.19-9.2763 1.9479-32.366 2.7696-40.732 1.4495z" fill="#f8c803" stroke="#000" stroke-opacity=".15578" stroke-width="3.7795" style="paint-order:stroke markers fill"/>
<g fill="#015191">
<path transform="translate(234.19,-115.59)" d="m48.891 25.18c-22.821 17.301-39.316 42.221-46.256 71.631-0.19403 0.82225-0.35238 1.543-0.51953 2.2852h46.775z"/>
<path transform="translate(234.19,-115.59)" d="m2.0449 150.1c0.20214 0.87579 0.41213 1.7665 0.65625 2.7559 6.033 24.448 17.56 44.713 34.867 61.297 3.7014 3.5468 7.4667 6.7977 11.322 9.7774v-73.83z"/>
<path transform="translate(234.19,-115.59)" d="m99.891 150.1v96.939c2.6897 0.56582 5.4229 1.0888 8.2383 1.5332h2e-3c8.3735 1.3208 31.481 0.4981 40.764-1.4512 48.603-10.206 85.209-45.712 97.189-94.264 0.24415-0.9895 0.4541-1.8819 0.65625-2.7578z"/>
<path transform="translate(234.19,-115.59)" d="m123.67 0.0058594c-8.7584 0.087899-17.578 0.84506-24.332 2.2324v97.393h147.46c-0.19888-0.89658-0.40308-1.8054-0.64258-2.8203-11.46-48.561-48.369-84.383-97.76-94.885-6.487-1.3793-15.557-2.0119-24.721-1.9199z"/>
</g>
</g>
</svg>
