<svg width="248.77" height="249.22" version="1.1" viewBox="0 0 248.77 249.22" xmlns="http://www.w3.org/2000/svg">
<g transform="translate(-234.19 115.59)">
<path d="m342.32 132.98c-28.616-4.5162-50.495-15.188-70.562-34.417-17.307-16.584-28.833-36.849-34.866-61.297-2.3364-9.4689-2.6603-12.809-2.6923-27.764-0.0322-14.997 0.27728-18.329 2.6257-28.281 11.284-47.817 47.793-83.802 95.758-94.384 13.719-3.0265 37.026-3.2604 50-0.5018 49.391 10.502 86.298 46.324 97.758 94.885 2.3484 9.9515 2.6579 13.284 2.6257 28.281-0.0321 14.955-0.35598 18.295-2.6923 27.764-11.98 48.552-48.588 84.058-97.191 94.264-9.2836 1.9494-32.392 2.7718-40.764 1.4506z" fill="#f8c803"/>
<path d="m342.08 132.96c-3.3-0.5149-6.5668-1.1522-7.2596-1.4162-0.9938-0.3787-1.2048-10.668-1-48.758l0.25962-48.278 146.73-0.51304-0.68881 3.7565c-2.059 11.229-9.6924 28.652-18.235 41.621-8.0036 12.587-21.22 25.66-32.937 32.937-14.38 9.4718-29.404 15.77-45.865 19.226-9.3679 1.9672-32.394 2.7669-41 1.424zm-71.538-35.341c-11.415-11.478-17.397-20.246-23.892-33.246-4.106-8.2188-8.4288-20.201-9.6083-26.633l-0.6911-3.7687 46.73 0.53743 0.26284 35.937c0.16245 22.212-0.65421 37.625-0.65421 37.625s-5.154-3.4181-12.148-10.451zm-33.5-117.35c2.0337-11.09 9.8369-28.873 18.328-41.769 10.019-16.805 28.285-29.368 28.285-29.368s-0.14862 16.219-0.31107 38.431l-0.26284 35.937-46.73 0.53743zm96.997 2.4813c-0.26349-0.6875-0.36187-22.605-0.21861-48.705l-0.03-47.528 4.2905-0.89019c7.2887-1.7544 35.053-1.3181 44.5 0.69935 17.077 3.6469 31.88 9.8325 46.365 19.373 10.501 6.9521 25.866 21.713 32.846 32.801 8.4851 12.886 16.295 30.679 18.324 41.75l0.99568 3.8527-73.451-0.1027c-57.592-0.08052-73.245-0.26576-73.622-1.25z" fill="#015191"/>
</g>
</svg>
