<?xml version="1.0" encoding="UTF-8" standalone="no"?>
<!-- Created with Inkscape (http://www.inkscape.org/) -->

<svg
   xmlns:dc="http://purl.org/dc/elements/1.1/"
   xmlns:cc="http://creativecommons.org/ns#"
   xmlns:rdf="http://www.w3.org/1999/02/22-rdf-syntax-ns#"
   xmlns:svg="http://www.w3.org/2000/svg"
   xmlns="http://www.w3.org/2000/svg"
   xmlns:sodipodi="http://sodipodi.sourceforge.net/DTD/sodipodi-0.dtd"
   xmlns:inkscape="http://www.inkscape.org/namespaces/inkscape"
   width="886.78583mm"
   height="234.457mm"
   viewBox="0 0 886.78583 234.457"
   version="1.1"
   id="svg8"
   inkscape:version="0.92.4 5da689c313, 2019-01-14"
   sodipodi:docname="totalrippad.svg">
  <defs
     id="defs2">
    <clipPath
       clipPathUnits="userSpaceOnUse"
       id="clipPath5042">
      <path
         d="M 0,888 H 2992 V 0 H 0 Z"
         id="path5040"
         inkscape:connector-curvature="0" />
    </clipPath>
  </defs>
  <sodipodi:namedview
     id="base"
     pagecolor="#ffffff"
     bordercolor="#666666"
     borderopacity="1.0"
     inkscape:pageopacity="0.0"
     inkscape:pageshadow="2"
     inkscape:zoom="0.24748737"
     inkscape:cx="1491.5107"
     inkscape:cy="193.78112"
     inkscape:document-units="mm"
     inkscape:current-layer="layer1"
     showgrid="false"
     fit-margin-top="0"
     fit-margin-left="0"
     fit-margin-right="0"
     fit-margin-bottom="0"
     inkscape:window-width="1570"
     inkscape:window-height="870"
     inkscape:window-x="14"
     inkscape:window-y="14"
     inkscape:window-maximized="0"
     showborder="true"
     borderlayer="false"
     inkscape:showpageshadow="false"
     inkscape:pagecheckerboard="true" />
  <metadata
     id="metadata5">
    <rdf:RDF>
      <cc:Work
         rdf:about="">
        <dc:format>image/svg+xml</dc:format>
        <dc:type
           rdf:resource="http://purl.org/dc/dcmitype/StillImage" />
        <dc:title></dc:title>
      </cc:Work>
    </rdf:RDF>
  </metadata>
  <g
     inkscape:label="Layer 1"
     inkscape:groupmode="layer"
     id="layer1"
     transform="translate(410.82147,-105.20007)">
    <g
       id="g4629"
       transform="matrix(0.35277777,0,0,-0.35277777,-503.40396,355.06378)"
       style="fill:#000000;stroke:#000000;stroke-width:5.6692915;stroke-miterlimit:4;stroke-dasharray:none;stroke-opacity:1">
      <g
         clip-path="url(#clipPath5042)"
         id="g4627"
         style="fill:#000000;stroke:#000000;stroke-width:5.6692915;stroke-miterlimit:4;stroke-dasharray:none;stroke-opacity:1">
        <g
           transform="translate(455.4551,335.2197)"
           id="g4625"
           style="fill:#000000;stroke:#000000;stroke-width:5.6692915;stroke-miterlimit:4;stroke-dasharray:none;stroke-opacity:1">
          <path
             inkscape:connector-curvature="0"
             id="path4623"
             style="fill:#000000;fill-opacity:1;fill-rule:nonzero;stroke:#000000;stroke-width:5.6692915;stroke-miterlimit:4;stroke-dasharray:none;stroke-opacity:1"
             d="m 0,0 c 0,0 -6.378,-5.788 -8.602,-8.49 -2.223,-2.701 -9.377,-12.159 -25.387,10.259 0,0 -39.543,52.376 -50.951,39.061 -11.407,-13.317 -34.301,-21.89 -60.174,-15.493 0,0 -0.193,-73.005 112.543,-128.213 112.738,-55.211 204.515,-80.79 157.195,-155.811 -47.321,-75.021 -117.147,20.196 -72.062,40.88 0,0 35.289,12.714 12.395,-30.333 0,0 16.727,-12.57 29.233,6.155 12.507,18.722 20.06,46.336 -106.585,99.948 -126.644,53.614 -146.779,105.585 -155.409,171.644 0,0 -36.2,11.621 -21.847,79.494 14.354,67.872 47.209,91.983 52.042,96.711 0,0 -32.62,21.37 -18.584,58.052 14.036,36.683 27.829,19.094 33.427,16.193 5.598,-2.903 36.922,37.722 57.828,-14.345 0,0 2.118,-9.369 -8.515,-20.271 -10.632,-10.902 16.208,-15.852 42.78,1.989 26.573,17.839 -15.652,46.134 17.437,58.695 31.974,12.139 24.284,-3.981 16.247,-15.387 -10.246,-14.539 -7.474,0.315 -0.176,-43.919 0,0 5.591,-10.434 -21.358,-18.811 -26.95,-8.376 -52.358,-21.968 -25.915,-38.795 26.442,-16.826 58.067,34.903 64.93,42.043 6.862,7.14 4.524,-8.434 -10.082,-34.686 0,0 -16.806,-13.09 -33.829,-41.078 -17.02,-27.989 -33.117,4.955 -41.716,0.232 -8.598,-4.724 -62.986,-27.85 -44.067,-37.138 18.918,-9.287 11.314,18.82 63.639,4.384 0,0 16.026,-6.098 28.956,-15.574 0,0 9.092,16.119 15.759,19.203 4.214,1.95 -3.03,-39.848 -7.867,-48.759 -6.225,-11.469 -28.651,32.955 -59.667,12.223 0,0 -12.658,-8.293 3.752,-16.324 16.409,-8.03 21.908,-12.96 29.334,-23.783 C -27.871,39.134 -14.1,-2.305 -6.829,29.266 0.442,60.835 11.046,5.044 0,0" />
        </g>
      </g>
    </g>
    <g
       id="g4647"
       style="font-variant:normal;font-weight:bold;font-stretch:normal;font-size:176.3888855px;font-family:'Source Sans Pro';-inkscape-font-specification:SourceSansPro-Bold;writing-mode:lr-tb;fill:#000000;fill-opacity:1;fill-rule:nonzero;stroke:#000000;stroke-width:2;stroke-miterlimit:4;stroke-dasharray:none;stroke-opacity:1"
       aria-label="LiTHe kod"
       transform="translate(0,-1.5875)">
      <path
         inkscape:connector-curvature="0"
         id="path4631"
         style="fill:#000000;stroke:#000000;stroke-width:2;stroke-miterlimit:4;stroke-dasharray:none;stroke-opacity:1"
         d="m -340.96238,114.62609 h 33.15904 v 103.52512 h 58.22212 v 25.06307 h -91.38116 z" />
      <path
         inkscape:connector-curvature="0"
         id="path4633"
         style="fill:#000000;stroke:#000000;stroke-width:2;stroke-miterlimit:4;stroke-dasharray:none;stroke-opacity:1"
         d="m -250.97097,146.75161 h 30.8336 v 96.46267 h -30.8336 z m 0,-37.55154 h 30.8336 v 25.14919 h -30.8336 z" />
      <path
         inkscape:connector-curvature="0"
         id="path4635"
         style="fill:#000000;stroke:#000000;stroke-width:2;stroke-miterlimit:4;stroke-dasharray:none;stroke-opacity:1"
         d="m -216.24027,114.62609 h 118.511279 v 25.06307 h -42.633059 v 103.52512 h -33.15904 V 139.68916 h -42.71918 z" />
      <path
         inkscape:connector-curvature="0"
         id="path4637"
         style="fill:#000000;stroke:#000000;stroke-width:2;stroke-miterlimit:4;stroke-dasharray:none;stroke-opacity:1"
         d="m -102.83739,114.62609 h 33.159039 v 49.00648 h 48.920355 v -49.00648 h 33.159044 v 128.58819 h -33.159044 v -54.51864 h -48.920355 v 54.51864 h -33.159039 z" />
      <path
         inkscape:connector-curvature="0"
         id="path4639"
         style="fill:#000000;stroke:#000000;stroke-width:2;stroke-miterlimit:4;stroke-dasharray:none;stroke-opacity:1"
         d="m 110.9611,194.72456 v 8.78499 H 38.872481 q 1.119656,10.85206 7.837592,16.27808 6.717936,5.42603 18.77577,5.42603 9.732395,0 19.895426,-2.84221 10.249159,-2.92833 21.015081,-8.78499 v 23.77116 q -10.938177,4.13411 -21.876355,6.20117 -10.938178,2.15318 -21.876356,2.15318 -26.182725,0 -40.738253,-13.26361 -14.4694008,-13.34975 -14.4694008,-37.37929 0,-23.5989 14.2110188,-37.1209 14.297146,-13.522 39.274088,-13.522 22.737629,0 36.345756,13.69425 13.694252,13.69426 13.694252,36.60414 z M 79.266225,184.4754 q 0,-8.78499 -5.167643,-14.12489 -5.081516,-5.42602 -13.349745,-5.42602 -8.957248,0 -14.555528,5.08151 -5.59828,4.99539 -6.976319,14.4694 z" />
      <path
         inkscape:connector-curvature="0"
         id="path4641"
         style="fill:#000000;stroke:#000000;stroke-width:2;stroke-miterlimit:4;stroke-dasharray:none;stroke-opacity:1"
         d="m 142.729,109.20007 h 30.83361 v 72.94989 l 35.48448,-35.39835 h 35.82899 l -47.11168,44.26947 50.81516,52.1932 h -37.37929 l -37.63766,-40.22149 v 40.22149 H 142.729 Z" />
      <path
         inkscape:connector-curvature="0"
         id="path4643"
         style="fill:#000000;stroke:#000000;stroke-width:2;stroke-miterlimit:4;stroke-dasharray:none;stroke-opacity:1"
         d="m 280.3395,166.47478 q -10.24916,0 -15.67519,7.40695 -5.3399,7.32083 -5.3399,21.18734 0,13.86651 5.3399,21.27346 5.42603,7.32083 15.67519,7.32083 10.0769,0 15.4168,-7.32083 5.3399,-7.40695 5.3399,-21.27346 0,-13.86651 -5.3399,-21.18734 -5.3399,-7.40695 -15.4168,-7.40695 z m 0,-22.04861 q 24.89081,0 38.84345,13.43587 14.03876,13.43587 14.03876,37.20703 0,23.77116 -14.03876,37.20703 -13.95264,13.43587 -38.84345,13.43587 -24.97695,0 -39.10184,-13.43587 -14.03876,-13.43587 -14.03876,-37.20703 0,-23.77116 14.03876,-37.20703 14.12489,-13.43587 39.10184,-13.43587 z" />
      <path
         inkscape:connector-curvature="0"
         id="path4645"
         style="fill:#000000;stroke:#000000;stroke-width:2;stroke-miterlimit:4;stroke-dasharray:none;stroke-opacity:1"
         d="m 397.95848,160.8765 v -51.67643 h 31.00586 v 134.01421 h -31.00586 v -13.95264 q -6.37343,8.52661 -14.03876,12.48847 -7.66534,3.96186 -17.74224,3.96186 -17.82837,0 -29.28332,-14.12489 -11.45494,-14.21102 -11.45494,-36.51801 0,-22.30699 11.45494,-36.43188 11.45495,-14.21102 29.28332,-14.21102 9.99077,0 17.65611,4.04799 7.75146,3.96185 14.12489,12.40234 z m -20.32606,62.44235 q 9.90465,0 15.07229,-7.2347 5.25377,-7.2347 5.25377,-21.01508 0,-13.78038 -5.25377,-21.01508 -5.16764,-7.2347 -15.07229,-7.2347 -9.81852,0 -15.07229,7.2347 -5.16765,7.2347 -5.16765,21.01508 0,13.78038 5.16765,21.01508 5.25377,7.2347 15.07229,7.2347 z" />
    </g>
    <g
       transform="matrix(0.35277777,0,0,-0.35277777,-503.40396,355.06378)"
       id="g5036">
      <g
         id="g5038"
         clip-path="url(#clipPath5042)">
        <g
           id="g5046"
           transform="translate(455.4551,335.2197)">
          <path
             d="m 0,0 c 0,0 -6.378,-5.788 -8.602,-8.49 -2.223,-2.701 -9.377,-12.159 -25.387,10.259 0,0 -39.543,52.376 -50.951,39.061 -11.407,-13.317 -34.301,-21.89 -60.174,-15.493 0,0 -0.193,-73.005 112.543,-128.213 112.738,-55.211 204.515,-80.79 157.195,-155.811 -47.321,-75.021 -117.147,20.196 -72.062,40.88 0,0 35.289,12.714 12.395,-30.333 0,0 16.727,-12.57 29.233,6.155 12.507,18.722 20.06,46.336 -106.585,99.948 -126.644,53.614 -146.779,105.585 -155.409,171.644 0,0 -36.2,11.621 -21.847,79.494 14.354,67.872 47.209,91.983 52.042,96.711 0,0 -32.62,21.37 -18.584,58.052 14.036,36.683 27.829,19.094 33.427,16.193 5.598,-2.903 36.922,37.722 57.828,-14.345 0,0 2.118,-9.369 -8.515,-20.271 -10.632,-10.902 16.208,-15.852 42.78,1.989 26.573,17.839 -15.652,46.134 17.437,58.695 31.974,12.139 24.284,-3.981 16.247,-15.387 -10.246,-14.539 -7.474,0.315 -0.176,-43.919 0,0 5.591,-10.434 -21.358,-18.811 -26.95,-8.376 -52.358,-21.968 -25.915,-38.795 26.442,-16.826 58.067,34.903 64.93,42.043 6.862,7.14 4.524,-8.434 -10.082,-34.686 0,0 -16.806,-13.09 -33.829,-41.078 -17.02,-27.989 -33.117,4.955 -41.716,0.232 -8.598,-4.724 -62.986,-27.85 -44.067,-37.138 18.918,-9.287 11.314,18.82 63.639,4.384 0,0 16.026,-6.098 28.956,-15.574 0,0 9.092,16.119 15.759,19.203 4.214,1.95 -3.03,-39.848 -7.867,-48.759 -6.225,-11.469 -28.651,32.955 -59.667,12.223 0,0 -12.658,-8.293 3.752,-16.324 16.409,-8.03 21.908,-12.96 29.334,-23.783 C -27.871,39.134 -14.1,-2.305 -6.829,29.266 0.442,60.835 11.046,5.044 0,0"
             style="fill:#1ec6ba;fill-opacity:1;fill-rule:nonzero;stroke:none"
             id="path5048"
             inkscape:connector-curvature="0" />
        </g>
      </g>
    </g>
    <g
       aria-label="LiTHe kod"
       style="font-variant:normal;font-weight:bold;font-stretch:normal;font-size:176.3888855px;font-family:'Source Sans Pro';-inkscape-font-specification:SourceSansPro-Bold;writing-mode:lr-tb;fill:#edeced;fill-opacity:1;fill-rule:nonzero;stroke:none;stroke-width:0.35277775"
       id="text5052"
       transform="translate(0,-1.5875)">
      <path
         d="m -340.96238,114.62609 h 33.15904 v 103.52512 h 58.22212 v 25.06307 h -91.38116 z"
         style="stroke-width:0.35277775"
         id="path4786"
         inkscape:connector-curvature="0" />
      <path
         d="m -250.97097,146.75161 h 30.8336 v 96.46267 h -30.8336 z m 0,-37.55154 h 30.8336 v 25.14919 h -30.8336 z"
         style="stroke-width:0.35277775"
         id="path4788"
         inkscape:connector-curvature="0" />
      <path
         d="m -216.24027,114.62609 h 118.511279 v 25.06307 h -42.633059 v 103.52512 h -33.15904 V 139.68916 h -42.71918 z"
         style="stroke-width:0.35277775"
         id="path4790"
         inkscape:connector-curvature="0" />
      <path
         d="m -102.83739,114.62609 h 33.159039 v 49.00648 h 48.920355 v -49.00648 h 33.159044 v 128.58819 h -33.159044 v -54.51864 h -48.920355 v 54.51864 h -33.159039 z"
         style="stroke-width:0.35277775"
         id="path4792"
         inkscape:connector-curvature="0" />
      <path
         d="m 110.9611,194.72456 v 8.78499 H 38.872481 q 1.119656,10.85206 7.837592,16.27808 6.717936,5.42603 18.77577,5.42603 9.732395,0 19.895426,-2.84221 10.249159,-2.92833 21.015081,-8.78499 v 23.77116 q -10.938177,4.13411 -21.876355,6.20117 -10.938178,2.15318 -21.876356,2.15318 -26.182725,0 -40.738253,-13.26361 -14.4694008,-13.34975 -14.4694008,-37.37929 0,-23.5989 14.2110188,-37.1209 14.297146,-13.522 39.274088,-13.522 22.737629,0 36.345756,13.69425 13.694252,13.69426 13.694252,36.60414 z M 79.266225,184.4754 q 0,-8.78499 -5.167643,-14.12489 -5.081516,-5.42602 -13.349745,-5.42602 -8.957248,0 -14.555528,5.08151 -5.59828,4.99539 -6.976319,14.4694 z"
         style="stroke-width:0.35277775"
         id="path4794"
         inkscape:connector-curvature="0" />
      <path
         d="m 142.729,109.20007 h 30.83361 v 72.94989 l 35.48448,-35.39835 h 35.82899 l -47.11168,44.26947 50.81516,52.1932 h -37.37929 l -37.63766,-40.22149 v 40.22149 H 142.729 Z"
         style="stroke-width:0.35277775"
         id="path4796"
         inkscape:connector-curvature="0" />
      <path
         d="m 280.3395,166.47478 q -10.24916,0 -15.67519,7.40695 -5.3399,7.32083 -5.3399,21.18734 0,13.86651 5.3399,21.27346 5.42603,7.32083 15.67519,7.32083 10.0769,0 15.4168,-7.32083 5.3399,-7.40695 5.3399,-21.27346 0,-13.86651 -5.3399,-21.18734 -5.3399,-7.40695 -15.4168,-7.40695 z m 0,-22.04861 q 24.89081,0 38.84345,13.43587 14.03876,13.43587 14.03876,37.20703 0,23.77116 -14.03876,37.20703 -13.95264,13.43587 -38.84345,13.43587 -24.97695,0 -39.10184,-13.43587 -14.03876,-13.43587 -14.03876,-37.20703 0,-23.77116 14.03876,-37.20703 14.12489,-13.43587 39.10184,-13.43587 z"
         style="stroke-width:0.35277775"
         id="path4798"
         inkscape:connector-curvature="0" />
      <path
         d="m 397.95848,160.8765 v -51.67643 h 31.00586 v 134.01421 h -31.00586 v -13.95264 q -6.37343,8.52661 -14.03876,12.48847 -7.66534,3.96186 -17.74224,3.96186 -17.82837,0 -29.28332,-14.12489 -11.45494,-14.21102 -11.45494,-36.51801 0,-22.30699 11.45494,-36.43188 11.45495,-14.21102 29.28332,-14.21102 9.99077,0 17.65611,4.04799 7.75146,3.96185 14.12489,12.40234 z m -20.32606,62.44235 q 9.90465,0 15.07229,-7.2347 5.25377,-7.2347 5.25377,-21.01508 0,-13.78038 -5.25377,-21.01508 -5.16764,-7.2347 -15.07229,-7.2347 -9.81852,0 -15.07229,7.2347 -5.16765,7.2347 -5.16765,21.01508 0,13.78038 5.16765,21.01508 5.25377,7.2347 15.07229,7.2347 z"
         style="stroke-width:0.35277775"
         id="path4800"
         inkscape:connector-curvature="0" />
    </g>
  </g>
</svg>
